<svg width="498" height="100" viewBox="0 0 498 100" fill="none" xmlns="http://www.w3.org/2000/svg">
<path fill-rule="evenodd" clip-rule="evenodd" d="M52.2564 99.0329C49.8157 100.322 46.8926 100.322 44.4519 99.0328L4.43124 77.8885C1.70488 76.448 0 73.6237 0 70.5476L0 29.4524C0 26.3763 1.70489 23.552 4.43124 22.1115L44.4519 0.967148C46.8926 -0.322385 49.8157 -0.322385 52.2564 0.967148L92.2771 22.1115C95.0034 23.552 96.7083 26.3763 96.7083 29.4524V70.5476C96.7083 73.6237 95.0034 76.448 92.2771 77.8885L52.2564 99.0329ZM7.51992 68.8736C7.51992 70.4213 8.38293 71.8405 9.75912 72.5564L9.76127 72.5575L44.0581 90.3734L44.0598 90.3743C45.4464 91.0931 47.1041 90.09 47.1041 88.5314L47.1041 52.935C47.1041 51.3875 46.2413 49.9683 44.8653 49.2524L44.8628 49.2511L10.566 31.4353C9.17901 30.7148 7.51992 31.718 7.51992 33.2772L7.51992 68.8736Z" fill="white"/>
<path d="M122.739 81V22.8182H145.011C149.216 22.8182 152.71 23.4811 155.494 24.8068C158.297 26.1136 160.39 27.9034 161.773 30.1761C163.174 32.4489 163.875 35.0246 163.875 37.9034C163.875 40.2708 163.42 42.2973 162.511 43.983C161.602 45.6496 160.381 47.0038 158.847 48.0455C157.312 49.0871 155.598 49.8352 153.705 50.2898V50.858C155.769 50.9716 157.748 51.6061 159.642 52.7614C161.555 53.8977 163.117 55.5076 164.33 57.5909C165.542 59.6742 166.148 62.1932 166.148 65.1477C166.148 68.1591 165.419 70.8674 163.96 73.2727C162.502 75.6591 160.305 77.5436 157.369 78.9261C154.434 80.3087 150.741 81 146.29 81H122.739ZM133.278 72.1932H144.614C148.439 72.1932 151.195 71.464 152.881 70.0057C154.585 68.5284 155.438 66.6345 155.438 64.3239C155.438 62.6004 155.011 61.0473 154.159 59.6648C153.307 58.2633 152.095 57.1648 150.523 56.3693C148.951 55.5549 147.076 55.1477 144.898 55.1477H133.278V72.1932ZM133.278 47.5625H143.705C145.523 47.5625 147.161 47.2311 148.619 46.5682C150.078 45.8864 151.223 44.9299 152.057 43.6989C152.909 42.4489 153.335 40.9716 153.335 39.267C153.335 37.0133 152.54 35.1572 150.949 33.6989C149.377 32.2405 147.038 31.5114 143.932 31.5114H133.278V47.5625ZM187.419 81.8807C184.654 81.8807 182.163 81.3883 179.947 80.4034C177.75 79.3996 176.008 77.9223 174.72 75.9716C173.451 74.0208 172.817 71.6155 172.817 68.7557C172.817 66.2936 173.271 64.2576 174.18 62.6477C175.089 61.0379 176.33 59.75 177.902 58.7841C179.474 57.8182 181.245 57.089 183.214 56.5966C185.203 56.0852 187.258 55.7159 189.379 55.4886C191.936 55.2235 194.01 54.9867 195.601 54.7784C197.192 54.5511 198.347 54.2102 199.067 53.7557C199.805 53.2822 200.175 52.553 200.175 51.5682V51.3977C200.175 49.2576 199.54 47.6004 198.271 46.4261C197.002 45.2519 195.175 44.6648 192.788 44.6648C190.269 44.6648 188.271 45.214 186.794 46.3125C185.336 47.411 184.351 48.7083 183.839 50.2045L174.237 48.8409C174.995 46.1894 176.245 43.9735 177.987 42.1932C179.73 40.3939 181.86 39.0492 184.379 38.1591C186.898 37.25 189.682 36.7955 192.732 36.7955C194.834 36.7955 196.927 37.0417 199.01 37.5341C201.093 38.0265 202.997 38.8409 204.72 39.9773C206.444 41.0947 207.826 42.6193 208.868 44.5511C209.929 46.483 210.459 48.8977 210.459 51.7955V81H200.572V75.0057H200.232C199.607 76.2178 198.726 77.3542 197.589 78.4148C196.472 79.4564 195.061 80.2992 193.357 80.9432C191.671 81.5682 189.692 81.8807 187.419 81.8807ZM190.089 74.3239C192.154 74.3239 193.944 73.9167 195.459 73.1023C196.974 72.2689 198.139 71.1705 198.953 69.8068C199.786 68.4432 200.203 66.9564 200.203 65.3466V60.2045C199.881 60.4697 199.332 60.7159 198.555 60.9432C197.798 61.1705 196.946 61.3693 195.999 61.5398C195.052 61.7102 194.114 61.8617 193.186 61.9943C192.258 62.1269 191.453 62.2405 190.771 62.3352C189.237 62.5436 187.864 62.8845 186.652 63.358C185.44 63.8314 184.483 64.4943 183.783 65.3466C183.082 66.1799 182.732 67.2595 182.732 68.5852C182.732 70.4792 183.423 71.9091 184.805 72.875C186.188 73.8409 187.949 74.3239 190.089 74.3239ZM236.993 81.767C233.565 81.767 230.497 80.8864 227.788 79.125C225.08 77.3636 222.94 74.8068 221.368 71.4545C219.796 68.1023 219.01 64.0303 219.01 59.2386C219.01 54.3902 219.805 50.2992 221.396 46.9659C223.006 43.6136 225.175 41.0852 227.902 39.3807C230.629 37.6572 233.669 36.7955 237.021 36.7955C239.578 36.7955 241.68 37.2311 243.328 38.1023C244.976 38.9545 246.283 39.9867 247.249 41.1989C248.214 42.392 248.963 43.5189 249.493 44.5795H249.919V22.8182H260.232V81H250.118V74.125H249.493C248.963 75.1856 248.196 76.3125 247.192 77.5057C246.188 78.6799 244.862 79.6837 243.214 80.517C241.567 81.3504 239.493 81.767 236.993 81.767ZM239.862 73.3295C242.04 73.3295 243.896 72.7424 245.43 71.5682C246.964 70.375 248.129 68.7178 248.925 66.5966C249.72 64.4754 250.118 62.0038 250.118 59.1818C250.118 56.3598 249.72 53.9072 248.925 51.8239C248.148 49.7405 246.993 48.1212 245.459 46.9659C243.944 45.8106 242.078 45.233 239.862 45.233C237.571 45.233 235.658 45.8295 234.124 47.0227C232.589 48.2159 231.434 49.8636 230.658 51.9659C229.881 54.0682 229.493 56.4735 229.493 59.1818C229.493 61.9091 229.881 64.3428 230.658 66.483C231.453 68.6042 232.618 70.2803 234.152 71.5114C235.705 72.7235 237.608 73.3295 239.862 73.3295ZM292.98 37.3636V45.3182H267.895V37.3636H292.98ZM274.088 26.9091H284.372V67.875C284.372 69.2576 284.58 70.3182 284.997 71.0568C285.433 71.7765 286.001 72.2689 286.702 72.5341C287.402 72.7992 288.179 72.9318 289.031 72.9318C289.675 72.9318 290.262 72.8845 290.793 72.7898C291.342 72.6951 291.759 72.6098 292.043 72.5341L293.776 80.5739C293.226 80.7633 292.44 80.9716 291.418 81.1989C290.414 81.4261 289.183 81.5587 287.724 81.5966C285.149 81.6723 282.829 81.2841 280.764 80.4318C278.7 79.5606 277.062 78.2159 275.849 76.3977C274.656 74.5795 274.069 72.3068 274.088 69.5795V26.9091ZM301.013 81V74.4659L323.513 46.2557V45.8864H301.751V37.3636H336.098V44.3807L314.678 72.108V72.4773H336.837V81H301.013ZM383.634 22.8182H394.173V60.8295C394.173 64.9962 393.188 68.661 391.219 71.8239C389.268 74.9867 386.522 77.4583 382.98 79.2386C379.438 81 375.3 81.8807 370.565 81.8807C365.812 81.8807 361.664 81 358.122 79.2386C354.58 77.4583 351.834 74.9867 349.884 71.8239C347.933 68.661 346.957 64.9962 346.957 60.8295V22.8182H357.497V59.9489C357.497 62.3731 358.027 64.5322 359.088 66.4261C360.168 68.3201 361.683 69.8068 363.634 70.8864C365.584 71.947 367.895 72.4773 370.565 72.4773C373.236 72.4773 375.546 71.947 377.497 70.8864C379.467 69.8068 380.982 68.3201 382.043 66.4261C383.103 64.5322 383.634 62.3731 383.634 59.9489V22.8182ZM416.169 22.8182V81H405.629V22.8182H416.169Z" fill="white"/>
<rect x="429" y="55" width="69" height="37" rx="10" fill="#27272A"/>
<path d="M444.793 82V63.8182H451.612C453.008 63.8182 454.18 64.0786 455.127 64.5994C456.08 65.1203 456.799 65.8364 457.284 66.7479C457.776 67.6534 458.021 68.6832 458.021 69.8374C458.021 71.0033 457.776 72.0391 457.284 72.9446C456.793 73.8501 456.068 74.5633 455.109 75.0842C454.151 75.5991 452.97 75.8565 451.567 75.8565H447.048V73.1488H451.123C451.94 73.1488 452.609 73.0067 453.13 72.7227C453.65 72.4386 454.035 72.0479 454.284 71.5508C454.538 71.0536 454.665 70.4825 454.665 69.8374C454.665 69.1922 454.538 68.6241 454.284 68.1328C454.035 67.6416 453.647 67.2598 453.121 66.9876C452.6 66.7094 451.928 66.5703 451.105 66.5703H448.087V82H444.793ZM460.74 82V68.3636H463.856V70.6364H463.998C464.247 69.8492 464.673 69.2425 465.277 68.8164C465.886 68.3844 466.582 68.1683 467.363 68.1683C467.541 68.1683 467.739 68.1772 467.958 68.195C468.183 68.2068 468.369 68.2275 468.517 68.2571V71.2134C468.381 71.1661 468.165 71.1246 467.869 71.0891C467.579 71.0477 467.298 71.027 467.026 71.027C466.44 71.027 465.913 71.1542 465.445 71.4087C464.984 71.6573 464.62 72.0036 464.353 72.4474C464.087 72.8913 463.954 73.4033 463.954 73.9833V82H460.74ZM476.039 82.2663C474.707 82.2663 473.553 81.9734 472.577 81.3874C471.6 80.8015 470.842 79.9818 470.304 78.9283C469.771 77.8748 469.505 76.6437 469.505 75.2351C469.505 73.8265 469.771 72.5924 470.304 71.533C470.842 70.4736 471.6 69.6509 472.577 69.065C473.553 68.479 474.707 68.1861 476.039 68.1861C477.371 68.1861 478.525 68.479 479.501 69.065C480.478 69.6509 481.232 70.4736 481.765 71.533C482.304 72.5924 482.573 73.8265 482.573 75.2351C482.573 76.6437 482.304 77.8748 481.765 78.9283C481.232 79.9818 480.478 80.8015 479.501 81.3874C478.525 81.9734 477.371 82.2663 476.039 82.2663ZM476.057 79.6918C476.779 79.6918 477.382 79.4935 477.868 79.0969C478.353 78.6945 478.714 78.1559 478.951 77.4812C479.193 76.8065 479.315 76.0548 479.315 75.2262C479.315 74.3917 479.193 73.6371 478.951 72.9624C478.714 72.2817 478.353 71.7402 477.868 71.3377C477.382 70.9353 476.779 70.734 476.057 70.734C475.317 70.734 474.701 70.9353 474.21 71.3377C473.725 71.7402 473.361 72.2817 473.118 72.9624C472.881 73.6371 472.763 74.3917 472.763 75.2262C472.763 76.0548 472.881 76.8065 473.118 77.4812C473.361 78.1559 473.725 78.6945 474.21 79.0969C474.701 79.4935 475.317 79.6918 476.057 79.6918Z" fill="white"/>
</svg>
